<svg height="300px" width="300px" fill="#000000" xmlns="http://www.w3.org/2000/svg" xmlns:xlink="http://www.w3.org/1999/xlink" version="1.1" x="0px" y="0px" viewBox="0 0 100 100" enable-background="new 0 0 100 100" xml:space="preserve"><path d="M30.2,72.6l-2.8-2.8l42.4-42.4l2.8,2.8L30.2,72.6z M35.4,59c-5.2-3.1-8.6-7.1-9.9-9c1.7-2.4,6.7-8.3,14.6-11.2  C37,41.5,35,45.5,35,50c0,2.7,0.7,5.2,2,7.4l7.1-7.101c0-3.714,2.581-6.3,6.3-6.3l9.5-9.5C56.9,33.6,53.6,33,50,33  c-12.557,0-23.35,7.076-29.3,17c3.083,5.142,7.194,9.084,11.7,11.9L35.4,59z M67.6,38.1l-3,3c5.2,3.1,8.601,7.1,9.9,9  c-1.7,2.4-6.7,8.3-14.6,11.2C63,58.5,65,54.5,65,50c0-2.7-0.7-5.2-2-7.4l-7,7.1c0,3.716-2.584,6.3-6.3,6.3l-9.5,9.5  c2.9,0.9,6.2,1.5,9.9,1.5c12.437,0,23.266-6.952,29.3-17C78.038,48.054,74.83,42.619,67.6,38.1z"/></svg>