<svg height="300px" width="300px" fill="#000000" xmlns="http://www.w3.org/2000/svg" xmlns:xlink="http://www.w3.org/1999/xlink" version="1.1" x="0px" y="0px" viewBox="0 0 100 100" enable-background="new 0 0 100 100" xml:space="preserve"><path d="M50,33c-12.557,0-23.35,7.076-29.3,17c5.945,9.915,16.733,17,29.3,17c12.558,0,23.35-7.076,29.3-17  C73.354,40.085,62.567,33,50,33z M50,56c-3.3,0-6-2.7-6-6s2.7-6,6-6s6,2.7,6,6S53.3,56,50,56z M25.4,50c1.7-2.4,6.7-8.3,14.6-11.2  c-3,2.7-5,6.7-5,11.2s2,8.5,5.1,11.2C32.1,58.2,27.2,52.4,25.4,50z M59.9,61.2C63,58.5,65,54.5,65,50s-2-8.5-5.1-11.2  c8,3,12.899,8.8,14.6,11.2C72.8,52.4,67.9,58.3,59.9,61.2z"/></svg>