<svg fill="#000000" author="Leonides Delgado" xmlns="http://www.w3.org/2000/svg" xmlns:xlink="http://www.w3.org/1999/xlink" version="1.1" x="0px" y="0px" viewBox="0 0 100 100" enable-background="new 0 0 100 100" xml:space="preserve"><g><rect x="-1046.938" y="-548.823" display="none" fill="#000000" width="1296.13" height="1356.136"/><path d="M93.955,46.27c-4.684-7.584-10.982-13.677-18.893-18.281C67.151,23.386,58.797,21.084,50,21.084   s-17.152,2.301-25.063,6.905c-7.913,4.604-14.21,10.697-18.893,18.281c-0.668,1.16-1.002,2.302-1.002,3.429   c0,1.126,0.334,2.269,1.002,3.427c4.683,7.584,10.981,13.678,18.893,18.281C32.847,76.01,41.202,78.31,50,78.31   s17.152-2.293,25.063-6.879c7.911-4.586,14.21-10.689,18.893-18.305c0.668-1.159,1.004-2.301,1.004-3.427   C94.959,48.572,94.623,47.43,93.955,46.27z M39.236,32.684C42.23,29.72,45.817,28.237,50,28.237c0.668,0,1.238,0.233,1.706,0.696   c0.468,0.464,0.703,1.028,0.703,1.689c0,0.664-0.235,1.226-0.702,1.689c-0.468,0.464-1.038,0.696-1.707,0.696   c-2.876,0-5.336,1.011-7.375,3.029c-2.041,2.021-3.062,4.455-3.062,7.304c0,0.663-0.234,1.226-0.702,1.689   c-0.47,0.464-1.038,0.696-1.706,0.696c-0.67,0-1.239-0.232-1.707-0.696c-0.468-0.463-0.702-1.026-0.702-1.689   C34.746,39.2,36.242,35.647,39.236,32.684z M71.802,65.918C65.095,69.941,57.827,71.953,50,71.953   c-7.828,0-15.095-2.011-21.802-6.035c-6.706-4.024-12.284-9.431-16.733-16.219c5.084-7.816,11.457-13.662,19.118-17.535   c-2.041,3.443-3.062,7.169-3.062,11.177c0,6.127,2.2,11.367,6.599,15.722c4.398,4.354,9.692,6.532,15.881,6.532   s11.482-2.177,15.88-6.532c4.4-4.355,6.6-9.595,6.6-15.722c0-4.007-1.021-7.734-3.062-11.177c7.66,3.873,14.033,9.72,19.118,17.535   C84.086,56.487,78.509,61.894,71.802,65.918z"/></g></svg>
